<mxfile host="Electron" agent="Mozilla/5.0 (Windows NT 10.0; Win64; x64) AppleWebKit/537.36 (KHTML, like Gecko) draw.io/26.2.2 Chrome/134.0.6998.178 Electron/35.1.2 Safari/537.36" version="26.2.2">
  <diagram name="Page-1" id="kGzlTUpNQUmZDkRe_ut6">
    <mxGraphModel dx="2068" dy="434" grid="1" gridSize="10" guides="1" tooltips="1" connect="1" arrows="1" fold="1" page="0" pageScale="1" pageWidth="827" pageHeight="1169" background="none" math="0" shadow="0">
      <root>
        <mxCell id="0" />
        <mxCell id="1" parent="0" />
        <mxCell id="nRFMR0SAhJJAzwHKPwyQ-186" value="&lt;b style=&quot;font-size: 12px;&quot;&gt;Digitálne dvojča legislatívy&lt;/b&gt;&lt;div style=&quot;font-size: 12px;&quot;&gt;&lt;br&gt;&lt;/div&gt;&lt;div style=&quot;font-size: 12px;&quot;&gt;&lt;br&gt;&lt;/div&gt;&lt;div style=&quot;font-size: 12px;&quot;&gt;&lt;br&gt;&lt;/div&gt;" style="html=1;outlineConnect=0;whiteSpace=wrap;shape=mxgraph.archimate3.application;appType=grouping;archiType=square;dashed=1;fillColor=#D2D7D7;fontFamily=Helvetica;fontSize=11;labelBackgroundColor=none;verticalAlign=top;strokeColor=#000000;" parent="1" vertex="1">
          <mxGeometry x="210" y="1160" width="430" height="670" as="geometry" />
        </mxCell>
        <mxCell id="b4YsowTs5IO4OCW3UgzT-78" value="&lt;div style=&quot;font-size: 12px;&quot;&gt;&lt;b&gt;Oprávnenia&lt;/b&gt;&lt;/div&gt;&lt;div style=&quot;font-size: 12px;&quot;&gt;Osobitné zákony definujúce jednotlivé agendy, právne princípy, ústava&lt;span style=&quot;background-color: transparent; color: light-dark(rgb(0, 0, 0), rgb(255, 255, 255));&quot;&gt;.&lt;/span&gt;&lt;/div&gt;" style="html=1;outlineConnect=0;whiteSpace=wrap;shape=mxgraph.archimate3.application;appType=grouping;archiType=square;dashed=1;fillColor=#D2D7D7;fontFamily=Helvetica;fontSize=11;labelBackgroundColor=none;verticalAlign=top;strokeColor=#000000;" vertex="1" parent="1">
          <mxGeometry x="240" y="1650" width="370" height="170" as="geometry" />
        </mxCell>
        <mxCell id="b4YsowTs5IO4OCW3UgzT-76" value="&lt;div style=&quot;font-size: 12px;&quot;&gt;&lt;b&gt;Kompetencie&lt;/b&gt;&lt;/div&gt;&lt;div style=&quot;font-size: 12px;&quot;&gt;Zákon č. 575/2001 Z. z. o organizácii činnosti vlády a organizácii ústrednej štátnej správy, tzv. kompetenčný zákon, spolu s osobitnými zákonmi upravujúcimi jednotlivé agendy&lt;/div&gt;" style="html=1;outlineConnect=0;whiteSpace=wrap;shape=mxgraph.archimate3.application;appType=grouping;archiType=square;dashed=1;fillColor=#D2D7D7;fontFamily=Helvetica;fontSize=11;labelBackgroundColor=none;verticalAlign=top;strokeColor=#000000;" vertex="1" parent="1">
          <mxGeometry x="240" y="1280" width="370" height="170" as="geometry" />
        </mxCell>
        <mxCell id="Mj89tKXQSyuhwqXj9ipI-14" value="&lt;div&gt;&lt;b&gt;Popis eGovernmentu&lt;/b&gt;&lt;/div&gt;&lt;div&gt;95/2019 Z. z.&amp;nbsp;&lt;span style=&quot;text-align: justify;&quot;&gt;o informačných technológiách vo verejnej správe&lt;/span&gt;&lt;/div&gt;" style="html=1;outlineConnect=0;whiteSpace=wrap;shape=mxgraph.archimate3.application;appType=grouping;archiType=square;dashed=1;fillColor=#D2D7D7;verticalAlign=top;strokeColor=#000000;" parent="1" vertex="1">
          <mxGeometry x="680" y="1160" width="1090" height="420" as="geometry" />
        </mxCell>
        <mxCell id="b4YsowTs5IO4OCW3UgzT-64" value="&lt;b&gt;MetaIS&lt;/b&gt;&lt;div&gt;&lt;br&gt;&lt;div style=&quot;text-align: left;&quot;&gt;podľa 95/2019 §3c obsahom MetaIS sú&amp;nbsp;&lt;span style=&quot;background-color: transparent; color: light-dark(rgb(0, 0, 0), rgb(255, 255, 255));&quot;&gt;najmä technologické, administratívne a organizačné údaje o prevádzkovaných informačných technológiách verejnej správy,&lt;/span&gt;&lt;/div&gt;&lt;/div&gt;" style="html=1;outlineConnect=0;whiteSpace=wrap;fillColor=#66CCFF;shape=mxgraph.archimate3.application;appType=comp;archiType=square;strokeColor=#000000;verticalAlign=top;spacing=6;" vertex="1" parent="1">
          <mxGeometry x="710" y="1220" width="800" height="330" as="geometry" />
        </mxCell>
        <mxCell id="Mj89tKXQSyuhwqXj9ipI-8" value="&lt;div&gt;&lt;b&gt;Reálizácia eGovernmentu - centrálne kompenty&lt;/b&gt;&lt;br&gt;&lt;div&gt;305/2013&amp;nbsp;&lt;span style=&quot;text-align: justify;&quot;&gt;o elektronickej podobe výkonu pôsobnosti orgánov verejnej moci a niektoré ďalšie zákony&lt;/span&gt;&lt;/div&gt;&lt;/div&gt;" style="html=1;outlineConnect=0;whiteSpace=wrap;shape=mxgraph.archimate3.application;appType=grouping;archiType=square;dashed=1;fillColor=#D2D7D7;verticalAlign=top;strokeColor=#000000;" parent="1" vertex="1">
          <mxGeometry x="680" y="1610" width="1090" height="220" as="geometry" />
        </mxCell>
        <mxCell id="Mj89tKXQSyuhwqXj9ipI-2" value="Register kompetencií" style="html=1;outlineConnect=0;whiteSpace=wrap;fillColor=#66CCFF;shape=mxgraph.archimate3.application;appType=comp;archiType=square;strokeColor=#000000;" parent="1" vertex="1">
          <mxGeometry x="260" y="1350" width="330" height="90" as="geometry" />
        </mxCell>
        <mxCell id="Mj89tKXQSyuhwqXj9ipI-3" value="Register oprávnení" style="html=1;outlineConnect=0;whiteSpace=wrap;fillColor=#66CCFF;shape=mxgraph.archimate3.application;appType=comp;archiType=square;strokeColor=#000000;" parent="1" vertex="1">
          <mxGeometry x="260" y="1720" width="330" height="90" as="geometry" />
        </mxCell>
        <mxCell id="Mj89tKXQSyuhwqXj9ipI-5" value="CSRU / OverSi" style="html=1;outlineConnect=0;whiteSpace=wrap;fillColor=#66CCFF;shape=mxgraph.archimate3.application;appType=comp;archiType=square;strokeColor=#000000;verticalAlign=top;" parent="1" vertex="1">
          <mxGeometry x="710" y="1680" width="200" height="130" as="geometry" />
        </mxCell>
        <mxCell id="PhzSfmGoKHry_nglsGGV-2" value="&lt;span style=&quot;&quot;&gt;+ automatizácia overenia oprávnenia&lt;/span&gt;" style="html=1;outlineConnect=0;whiteSpace=wrap;fillColor=#007B28;shape=mxgraph.archimate3.application;appType=func;archiType=rounded;align=left;strokeColor=#000000;fontColor=#FFFFFF;spacing=4;" parent="1" vertex="1">
          <mxGeometry x="720" y="1720" width="180" height="50" as="geometry" />
        </mxCell>
        <mxCell id="b4YsowTs5IO4OCW3UgzT-3" value="CAMP" style="html=1;outlineConnect=0;whiteSpace=wrap;fillColor=#66CCFF;shape=mxgraph.archimate3.application;appType=comp;archiType=square;strokeColor=#000000;verticalAlign=top;" vertex="1" parent="1">
          <mxGeometry x="930" y="1680" width="200" height="130" as="geometry" />
        </mxCell>
        <mxCell id="b4YsowTs5IO4OCW3UgzT-4" value="&lt;span style=&quot;&quot;&gt;+ automatizácia overenia oprávnenia&lt;/span&gt;" style="html=1;outlineConnect=0;whiteSpace=wrap;fillColor=#007B28;shape=mxgraph.archimate3.application;appType=func;archiType=rounded;align=left;strokeColor=#000000;fontColor=#FFFFFF;spacing=4;" vertex="1" parent="1">
          <mxGeometry x="940" y="1720" width="180" height="50" as="geometry" />
        </mxCell>
        <mxCell id="b4YsowTs5IO4OCW3UgzT-6" value="MOU" style="html=1;outlineConnect=0;whiteSpace=wrap;fillColor=#66CCFF;shape=mxgraph.archimate3.application;appType=comp;archiType=square;strokeColor=#000000;verticalAlign=top;" vertex="1" parent="1">
          <mxGeometry x="1150" y="1680" width="200" height="130" as="geometry" />
        </mxCell>
        <mxCell id="b4YsowTs5IO4OCW3UgzT-7" value="&lt;span style=&quot;&quot;&gt;+ udelenie súhlasu na prístup&amp;nbsp;&lt;/span&gt;&lt;div&gt;&lt;span style=&quot;&quot;&gt;k oprávneniu (napr. nemusí si každý vedieť overiť, kto je koho poručník&lt;/span&gt;&lt;/div&gt;" style="html=1;outlineConnect=0;whiteSpace=wrap;fillColor=#007B28;shape=mxgraph.archimate3.application;appType=func;archiType=rounded;align=left;strokeColor=#000000;fontColor=#FFFFFF;spacing=4;" vertex="1" parent="1">
          <mxGeometry x="1160" y="1720" width="180" height="70" as="geometry" />
        </mxCell>
        <mxCell id="b4YsowTs5IO4OCW3UgzT-12" value="Infraštuktúrna služba" style="html=1;outlineConnect=0;whiteSpace=wrap;fillColor=#FFFFFF;shape=mxgraph.archimate3.application;appType=passive;archiType=square;verticalAlign=middle;strokeColor=#000000;" vertex="1" parent="1">
          <mxGeometry x="1110" y="1420" width="180" height="50" as="geometry" />
        </mxCell>
        <mxCell id="b4YsowTs5IO4OCW3UgzT-13" value="Referenčný register" style="html=1;outlineConnect=0;whiteSpace=wrap;fillColor=#FFFFFF;shape=mxgraph.archimate3.application;appType=passive;archiType=square;verticalAlign=middle;strokeColor=#000000;" vertex="1" parent="1">
          <mxGeometry x="1300" y="1300" width="180" height="50" as="geometry" />
        </mxCell>
        <mxCell id="b4YsowTs5IO4OCW3UgzT-46" value="Ciele, Princípy, KRIT" style="html=1;outlineConnect=0;whiteSpace=wrap;fillColor=#FFFFFF;shape=mxgraph.archimate3.application;appType=passive;archiType=square;verticalAlign=middle;strokeColor=#000000;" vertex="1" parent="1">
          <mxGeometry x="730" y="1300" width="180" height="50" as="geometry" />
        </mxCell>
        <mxCell id="b4YsowTs5IO4OCW3UgzT-47" value="Programy, Projekt, Aktivity" style="html=1;outlineConnect=0;whiteSpace=wrap;fillColor=#FFFFFF;shape=mxgraph.archimate3.application;appType=passive;archiType=square;verticalAlign=middle;strokeColor=#000000;" vertex="1" parent="1">
          <mxGeometry x="730" y="1360" width="180" height="50" as="geometry" />
        </mxCell>
        <mxCell id="b4YsowTs5IO4OCW3UgzT-48" value="Orgány riadenia,&amp;nbsp;&lt;span style=&quot;&quot;&gt;, správca&amp;nbsp;&lt;/span&gt;&lt;div style=&quot;&quot;&gt;&lt;span style=&quot;&quot;&gt;IS ...&amp;nbsp;&lt;/span&gt;&lt;span style=&quot;background-color: transparent; color: light-dark(rgb(0, 0, 0), rgb(255, 255, 255));&quot;&gt;sa budú mapovať na OVM definované v RKO&lt;/span&gt;&lt;/div&gt;" style="html=1;outlineConnect=0;whiteSpace=wrap;fillColor=#FF9800;shape=mxgraph.archimate3.application;appType=passive;archiType=square;verticalAlign=middle;strokeColor=#000000;align=left;" vertex="1" parent="1">
          <mxGeometry x="920" y="1300" width="180" height="50" as="geometry" />
        </mxCell>
        <mxCell id="b4YsowTs5IO4OCW3UgzT-49" value="Koncová služba&lt;br&gt;&lt;div style=&quot;&quot;&gt;&lt;span style=&quot;background-color: transparent;&quot;&gt;biznis vrstva: KS, agendy, úseky do RKO&lt;/span&gt;&lt;/div&gt;" style="html=1;outlineConnect=0;whiteSpace=wrap;fillColor=#D32300;shape=mxgraph.archimate3.application;appType=passive;archiType=square;verticalAlign=middle;strokeColor=#000000;fontColor=#FFFFFF;align=left;" vertex="1" parent="1">
          <mxGeometry x="920" y="1360" width="180" height="50" as="geometry" />
        </mxCell>
        <mxCell id="b4YsowTs5IO4OCW3UgzT-50" value="Formulár&lt;div&gt;bude odkazovať na služby, činnosti v RKO&lt;/div&gt;" style="html=1;outlineConnect=0;whiteSpace=wrap;fillColor=#FF9800;shape=mxgraph.archimate3.application;appType=passive;archiType=square;verticalAlign=middle;strokeColor=#000000;noLabel=0;container=0;collapsible=0;metaEdit=0;enumerate=0;comic=0;align=left;" vertex="1" parent="1">
          <mxGeometry x="920" y="1420" width="180" height="50" as="geometry" />
        </mxCell>
        <mxCell id="b4YsowTs5IO4OCW3UgzT-51" value="Aplikačná služba" style="html=1;outlineConnect=0;whiteSpace=wrap;fillColor=#FFFFFF;shape=mxgraph.archimate3.application;appType=passive;archiType=square;verticalAlign=middle;strokeColor=#000000;" vertex="1" parent="1">
          <mxGeometry x="1110" y="1300" width="180" height="50" as="geometry" />
        </mxCell>
        <mxCell id="b4YsowTs5IO4OCW3UgzT-52" value="IS VS" style="html=1;outlineConnect=0;whiteSpace=wrap;fillColor=#FFFFFF;shape=mxgraph.archimate3.application;appType=passive;archiType=square;verticalAlign=middle;strokeColor=#000000;" vertex="1" parent="1">
          <mxGeometry x="1110" y="1360" width="180" height="50" as="geometry" />
        </mxCell>
        <mxCell id="b4YsowTs5IO4OCW3UgzT-53" value="Štandardizácia" style="html=1;outlineConnect=0;whiteSpace=wrap;fillColor=#FFFFFF;shape=mxgraph.archimate3.application;appType=passive;archiType=square;verticalAlign=middle;strokeColor=#000000;" vertex="1" parent="1">
          <mxGeometry x="730" y="1420" width="180" height="50" as="geometry" />
        </mxCell>
        <mxCell id="b4YsowTs5IO4OCW3UgzT-55" value="Zostavy a monitoring" style="html=1;outlineConnect=0;whiteSpace=wrap;fillColor=#FFFFFF;shape=mxgraph.archimate3.application;appType=passive;archiType=square;verticalAlign=middle;strokeColor=#000000;" vertex="1" parent="1">
          <mxGeometry x="730" y="1480" width="180" height="50" as="geometry" />
        </mxCell>
        <mxCell id="b4YsowTs5IO4OCW3UgzT-56" value="" style="group;fillColor=#00AEE8;strokeColor=#000000;container=0;" vertex="1" connectable="0" parent="1">
          <mxGeometry x="1540" y="1220" width="200" height="300" as="geometry" />
        </mxCell>
        <mxCell id="b4YsowTs5IO4OCW3UgzT-57" value="&lt;b&gt;CMÚ&lt;/b&gt;&lt;div&gt;&lt;br&gt;&lt;div style=&quot;text-align: left;&quot;&gt;Centrálny model údajov by mal byť referenčný, aby&lt;/div&gt;&lt;/div&gt;&lt;div style=&quot;text-align: left;&quot;&gt;78/2020 §2 c) m) o)&lt;/div&gt;" style="html=1;outlineConnect=0;whiteSpace=wrap;fillColor=#66CCFF;shape=mxgraph.archimate3.application;appType=comp;archiType=square;strokeColor=#000000;verticalAlign=top;spacing=4;" vertex="1" parent="1">
          <mxGeometry x="1540" y="1220" width="200" height="330" as="geometry" />
        </mxCell>
        <mxCell id="b4YsowTs5IO4OCW3UgzT-60" value="+ RUN informácie o IS, AS,&amp;nbsp;&lt;div&gt;KS, SLA, ..., napr. URL služby&lt;/div&gt;" style="html=1;outlineConnect=0;whiteSpace=wrap;fillColor=#007B28;shape=mxgraph.archimate3.application;appType=passive;archiType=square;verticalAlign=middle;strokeColor=#000000;fontColor=#FFFFFF;" vertex="1" parent="1">
          <mxGeometry x="1110" y="1480" width="180" height="50" as="geometry" />
        </mxCell>
        <mxCell id="b4YsowTs5IO4OCW3UgzT-61" value="&lt;span style=&quot;&quot;&gt;Referencovateľné identifikátory&lt;/span&gt;&lt;div&gt;&lt;span style=&quot;&quot;&gt;patria do CMÚ&lt;/span&gt;&lt;/div&gt;" style="html=1;outlineConnect=0;whiteSpace=wrap;fillColor=#D32300;shape=mxgraph.archimate3.application;appType=passive;archiType=square;verticalAlign=bottom;strokeColor=#000000;fontColor=#FFFFFF;align=left;" vertex="1" parent="1">
          <mxGeometry x="1300" y="1420" width="180" height="50" as="geometry" />
        </mxCell>
        <mxCell id="b4YsowTs5IO4OCW3UgzT-62" value="Číselník&lt;div&gt;&lt;font style=&quot;color: rgb(255, 51, 0);&quot;&gt;presunúť do CMÚ??&lt;/font&gt;&lt;/div&gt;" style="html=1;outlineConnect=0;whiteSpace=wrap;fillColor=#FFFFFF;shape=mxgraph.archimate3.application;appType=passive;archiType=square;verticalAlign=middle;strokeColor=#000000;" vertex="1" parent="1">
          <mxGeometry x="1300" y="1360" width="180" height="50" as="geometry" />
        </mxCell>
        <mxCell id="b4YsowTs5IO4OCW3UgzT-65" value="&lt;a href=&quot;https://znalosti.gov.sk/&quot;&gt;&lt;span role=&quot;link&quot;&gt;https://znalosti.gov.sk/&lt;/span&gt;&lt;/a&gt;" style="html=1;outlineConnect=0;whiteSpace=wrap;fillColor=#FFFFFF;shape=mxgraph.archimate3.application;appType=comp;archiType=square;strokeColor=#000000;" vertex="1" parent="1">
          <mxGeometry x="1550" y="1310" width="180" height="50" as="geometry" />
        </mxCell>
        <mxCell id="b4YsowTs5IO4OCW3UgzT-66" value="CMÚ by sa mal stať referenčným, aby sa naň dalo odkazovať z referenčných." style="html=1;outlineConnect=0;whiteSpace=wrap;fillColor=#007B28;shape=mxgraph.archimate3.application;appType=workPackage;archiType=rounded;strokeColor=#000000;fontColor=#FFFFFF;align=left;spacing=4;" vertex="1" parent="1">
          <mxGeometry x="1550" y="1490" width="180" height="50" as="geometry" />
        </mxCell>
        <mxCell id="b4YsowTs5IO4OCW3UgzT-67" value="&lt;span style=&quot;&quot;&gt;Referencovateľné identifikátory&amp;nbsp;&lt;/span&gt;&lt;div&gt;&lt;span style=&quot;&quot;&gt;z MetaIS&lt;/span&gt;&lt;/div&gt;" style="html=1;outlineConnect=0;whiteSpace=wrap;fillColor=#007B28;shape=mxgraph.archimate3.application;appType=passive;archiType=square;verticalAlign=bottom;strokeColor=#000000;align=left;fontColor=#FFFFFF;" vertex="1" parent="1">
          <mxGeometry x="1550" y="1430" width="180" height="50" as="geometry" />
        </mxCell>
        <mxCell id="b4YsowTs5IO4OCW3UgzT-68" value="Ontológie, znalostný graf" style="html=1;outlineConnect=0;whiteSpace=wrap;fillColor=#FFFFFF;shape=mxgraph.archimate3.application;appType=passive;archiType=square;verticalAlign=middle;strokeColor=#000000;" vertex="1" parent="1">
          <mxGeometry x="1550" y="1370" width="180" height="50" as="geometry" />
        </mxCell>
        <mxCell id="b4YsowTs5IO4OCW3UgzT-72" value="ÚPVS" style="html=1;outlineConnect=0;whiteSpace=wrap;fillColor=#66CCFF;shape=mxgraph.archimate3.application;appType=comp;archiType=square;strokeColor=#000000;verticalAlign=top;" vertex="1" parent="1">
          <mxGeometry x="1370" y="1680" width="200" height="130" as="geometry" />
        </mxCell>
        <mxCell id="b4YsowTs5IO4OCW3UgzT-73" value="&lt;span style=&quot;&quot;&gt;+ informovanie o kompetenciách a oprávneniach založené na štruktúrovaných údajoch&lt;/span&gt;" style="html=1;outlineConnect=0;whiteSpace=wrap;fillColor=#007B28;shape=mxgraph.archimate3.application;appType=func;archiType=rounded;align=left;strokeColor=#000000;fontColor=#FFFFFF;spacing=4;" vertex="1" parent="1">
          <mxGeometry x="1380" y="1720" width="180" height="70" as="geometry" />
        </mxCell>
        <mxCell id="b4YsowTs5IO4OCW3UgzT-74" value="Slov-Lex" style="html=1;outlineConnect=0;whiteSpace=wrap;fillColor=#66CCFF;shape=mxgraph.archimate3.application;appType=comp;archiType=square;strokeColor=#000000;verticalAlign=middle;" vertex="1" parent="1">
          <mxGeometry x="240" y="1210" width="180" height="50" as="geometry" />
        </mxCell>
        <mxCell id="b4YsowTs5IO4OCW3UgzT-75" value="Prehľad o elektronizácii" style="html=1;outlineConnect=0;whiteSpace=wrap;fillColor=#007B28;shape=mxgraph.archimate3.application;appType=passive;archiType=square;verticalAlign=middle;strokeColor=#000000;fontColor=#FFFFFF;" vertex="1" parent="1">
          <mxGeometry x="920" y="1480" width="180" height="50" as="geometry" />
        </mxCell>
        <mxCell id="b4YsowTs5IO4OCW3UgzT-77" value="&lt;div style=&quot;font-size: 12px;&quot;&gt;&lt;b&gt;Agendy&lt;/b&gt;&lt;/div&gt;&lt;div style=&quot;font-size: 12px;&quot;&gt;Osobitné zákony definujúce jednotlivé agendy&lt;/div&gt;&lt;div style=&quot;font-size: 12px;&quot;&gt;IS bude treba upraviť, aby poskytovali referenčné údaje pre RKO. Niektoré (napr. register zastupovaní) bude potrebné vytvoriť.&lt;/div&gt;" style="html=1;outlineConnect=0;whiteSpace=wrap;shape=mxgraph.archimate3.application;appType=grouping;archiType=square;dashed=1;fillColor=#D2D7D7;fontFamily=Helvetica;fontSize=11;labelBackgroundColor=none;verticalAlign=top;strokeColor=#000000;" vertex="1" parent="1">
          <mxGeometry x="240" y="1460" width="370" height="170" as="geometry" />
        </mxCell>
        <mxCell id="b4YsowTs5IO4OCW3UgzT-71" value="&lt;div&gt;&lt;span style=&quot;&quot;&gt;305/2013 §4 (4)&lt;/span&gt;&lt;/div&gt;&lt;span style=&quot;&quot;&gt;&lt;b&gt;Agendové &lt;/b&gt;systémy sú informačné systémy verejnej správy&lt;/span&gt;&lt;a class=&quot;citacnyOdkazJednoduchy&quot; title=&quot;Odkaz na predpis alebo ustanovenie&quot; href=&quot;https://www.slov-lex.sk/ezbierky-fe/pravne-predpisy/SK/ZZ/2013/305/20250101#poznamky.poznamka-3&quot; style=&quot;box-sizing: border-box; -webkit-font-smoothing: antialiased; display: inline;&quot;&gt;&lt;span style=&quot;box-sizing: border-box;&quot;&gt;3&lt;/span&gt;)&lt;/a&gt;&lt;span style=&quot;&quot;&gt;&amp;nbsp;v správe orgánov verejnej moci, ktoré slúžia na zabezpečenie výkonu verejnej moci v rozsahu pôsobnosti a oprávnení týchto orgánov podľa osobitných predpisov.&lt;/span&gt;" style="text;strokeColor=#000000;align=left;fillColor=#FFFFFF;html=1;verticalAlign=top;whiteSpace=wrap;rounded=0;" vertex="1" parent="1">
          <mxGeometry x="260" y="1530" width="330" height="90" as="geometry" />
        </mxCell>
      </root>
    </mxGraphModel>
  </diagram>
</mxfile>
